<svg width="39" height="47" viewBox="0 0 39 47" fill="none" xmlns="http://www.w3.org/2000/svg">
<path fill-rule="evenodd" clip-rule="evenodd" d="M16.4507 2.44912C13.2306 5.38329 12.3791 6.99577 12.3791 10.1583C12.3791 12.6366 13.3974 14.8947 15.3465 16.7368C16.7318 18.0462 17.1042 17.8942 17.1042 16.018C17.1042 15.1145 16.8915 14.3752 16.6317 14.3752C16.3718 14.3752 16.1592 13.8207 16.1592 13.143V11.9108H19.2304H22.3017V13.143C22.3017 13.8207 22.0891 14.3752 21.8292 14.3752C21.5693 14.3752 21.3567 15.1145 21.3567 16.018C21.3567 18.01 21.8845 18.0893 23.4031 16.3261C26.4215 12.8214 27.0225 9.52375 25.2582 6.14723C24.479 4.6555 19.9761 0 19.3131 0C19.2167 0 17.9287 1.10196 16.4507 2.44912ZM0.177189 19.6118C0.372806 23.5831 1.19638 25.5381 3.52582 27.5629C5.39127 29.1844 8.21921 30.3998 10.3823 30.5094L12.1429 30.5986L12.3791 26.3008C12.6154 22.003 12.6154 22.0026 14.1425 21.1097L15.6697 20.2172L14.7313 19.1802C14.2153 18.6101 12.6891 17.6654 11.3396 17.081C9.22328 16.1642 8.27544 16.018 4.44296 16.018H0L0.177189 19.6118ZM27.1213 17.081C25.7718 17.6654 24.2456 18.6101 23.7296 19.1802L22.7912 20.2172L24.3184 21.1097C25.8455 22.0026 25.8455 22.003 26.0817 26.3008L26.318 30.5986L28.0786 30.5094C30.2417 30.3998 33.0696 29.1844 34.9351 27.5629C37.2645 25.5381 38.0881 23.5831 38.2837 19.6118L38.4609 16.018H34.0179C30.1854 16.018 29.2376 16.1642 27.1213 17.081ZM0.0940271 34.9965C0.0940271 38.9509 1.10141 41.4514 3.59245 43.6791C6.17515 45.989 8.97852 46.8219 14.1709 46.8219H18.1564H20.4117H24.3439C29.4786 46.8219 32.2947 45.9812 34.8684 43.6791C37.3491 41.4604 38.3669 38.9481 38.3669 35.0434V32.0361L34.2324 32.0541C27.7166 32.0825 24.5499 33.4826 22.0763 37.4288C20.9225 39.2692 20.6607 40.2291 20.4949 43.2282C20.3068 46.6326 20.2402 46.8219 19.2304 46.8219C18.2216 46.8219 18.1536 46.6301 17.9552 43.2282C17.7208 39.1986 16.8126 37.2054 14.1888 34.9567C11.5674 32.7105 10.2292 32.2989 4.93719 32.1129L0.0940271 31.9428V34.9965Z" fill="url(#paint0_linear_1376_489)"/>
<defs>
<linearGradient id="paint0_linear_1376_489" x1="19.2304" y1="-9.67617e-10" x2="19.1909" y2="87.8266" gradientUnits="userSpaceOnUse">
<stop offset="0.29811" stop-color="#FCDB03"/>
<stop offset="1" stop-color="#FD8C04"/>
</linearGradient>
</defs>
</svg>
